<svg xmlns="http://www.w3.org/2000/svg" width="24" height="16" viewBox="0 0 24 16">
    <path style="fill:none" d="M0 0h24v16H0z"/>
    <path data-name="folder" d="M3 15.286V6.714A1.684 1.684 0 0 1 3.521 5.5 1.812 1.812 0 0 1 4.778 5h5.333l1.778 1.714h5.333a1.812 1.812 0 0 1 1.257.5A1.684 1.684 0 0 1 19 8.429v6.857a1.684 1.684 0 0 1-.521 1.212 1.812 1.812 0 0 1-1.257.5H4.778a1.812 1.812 0 0 1-1.257-.5A1.684 1.684 0 0 1 3 15.286z" transform="translate(1.554 -2.634)" style="stroke:#666;stroke-linecap:round;stroke-linejoin:round;stroke-width:1.5px;fill:none"/>
</svg>
