<svg xmlns="http://www.w3.org/2000/svg" width="40" height="40" viewBox="0 0 40 40">
    <g data-name="logo / x56">
        <path style="fill:none" d="M0 0h40v40H0z"/>
        <g data-name="그룹 12">
            <g data-name="그룹 11">
                <path data-name="패스 212" d="M460.142 445.149a2.824 2.824 0 1 1 5.647 0 2.825 2.825 0 1 1-5.647 0zm4.14 0c0-1.077-.5-1.712-1.316-1.712s-1.309.636-1.309 1.712.5 1.764 1.309 1.764 1.316-.679 1.316-1.764z" transform="translate(-456.138 -412.078)" style="fill:#fff"/>
                <path data-name="패스 213" d="M476.715 442.547h1.507l1.532 2.662.6 1.234h.042a15.894 15.894 0 0 1-.2-2.056v-1.84h1.407v5.563H480.1l-1.523-2.684-.6-1.219h-.041a20.078 20.078 0 0 1 .19 2.056v1.847h-1.407z" transform="translate(-465.923 -412.227)" style="fill:#fff"/>
            </g>
        </g>
        <path data-name="패스 221" d="M491.519 378.713h6.6l12.57 31.915h-6.6z" transform="translate(-474.687 -374.713)" style="fill:#4b62e8"/>
        <path data-name="패스 222" d="M466.987 401.1h-6.845l12.6-22.39h6.846z" transform="translate(-456.141 -374.713)" style="fill:#fff"/>
        <path data-name="패스 223" d="M497.676 424.43h-6.845l12.6-22.39h6.845z" transform="translate(-474.281 -388.43)" style="fill:#fff"/>
    </g>
</svg>
